<svg width="65" height="64" viewBox="0 0 65 64" fill="none" xmlns="http://www.w3.org/2000/svg">
<path d="M32.825 18C25.025 18 18.825 24.2 18.825 32C18.825 39.8 25.025 46 32.825 46C40.625 46 46.825 39.8 46.825 32C46.825 24.2 40.625 18 32.825 18ZM32.825 42C27.225 42 22.825 37.6 22.825 32C22.825 26.4 27.225 22 32.825 22C38.425 22 42.825 26.4 42.825 32C42.825 37.6 38.425 42 32.825 42Z" fill="white"/>
<path d="M62.225 25.4L56.625 23.6L55.425 20.6L58.225 15.4C58.825 14.2 58.625 12.6 57.625 11.6L52.825 6.8C51.825 5.8 50.225 5.6 49.025 6.2L43.825 9L40.825 7.8L39.025 2.2C38.625 1 37.425 0 36.025 0H29.225C27.825 0 26.625 1 26.425 2.4L24.625 8C23.425 8.2 22.425 8.6 21.425 9.2L16.225 6.4C15.025 5.8 13.425 6 12.425 7L7.625 11.8C6.625 12.8 6.425 14.4 7.025 15.6L9.625 20.6C9.225 21.6 8.825 22.8 8.425 23.8L2.825 25.6C1.625 26 0.625 27.2 0.625 28.6V35.4C0.625 36.8 1.625 38 3.025 38.4L8.625 40.2L9.825 43.2L7.025 48.4C6.425 49.6 6.625 51.2 7.625 52.2L12.425 57C13.425 58 15.025 58.2 16.225 57.6L21.425 54.8L24.425 56L26.225 61.8C26.625 63 27.825 64 29.225 64H36.025C37.425 64 38.625 63 39.025 61.8L40.825 56L43.825 54.8L49.025 57.6C50.225 58.2 51.825 58 52.825 57L57.625 52.2C58.625 51.2 58.825 49.6 58.225 48.4L55.425 43.2L56.625 40.2L62.425 38.4C63.625 38 64.625 36.8 64.625 35.4V28.6C64.625 27.2 63.625 25.8 62.225 25.4V25.4ZM60.625 34.8L53.425 37L53.225 38L51.425 42.2L50.825 43.2L54.425 49.8L50.425 53.8L43.825 50.2L42.825 50.8C41.425 51.6 40.025 52.2 38.625 52.6L37.625 52.8L35.425 60H29.825L27.625 52.8L26.625 52.6L22.425 50.8L21.425 50.2L14.825 53.8L10.825 49.8L14.425 43.2L13.825 42.2C13.025 40.8 12.425 39.4 12.025 38L11.825 37L4.625 34.8V29.2L11.425 27.2L11.825 26.2C12.225 24.6 12.825 23.2 13.625 21.8L14.225 20.8L10.825 14.2L14.825 10.2L21.225 13.8L22.225 13.2C23.625 12.4 25.025 11.8 26.625 11.4L27.625 11L29.825 4H35.425L37.625 11L38.625 11.4C40.025 11.8 41.425 12.4 42.825 13.2L43.825 13.8L50.425 10.2L54.425 14.2L50.825 20.8L51.425 21.8C52.225 23.2 52.825 24.6 53.225 26L53.425 27L60.625 29.2V34.8V34.8Z" fill="white"/>
</svg>
