<svg width="2560" height="100%" viewBox="0 0 2560 325" fill="none" preserveAspectRatio="none" xmlns="http://www.w3.org/2000/svg">
<path fill-rule="evenodd" clip-rule="evenodd" d="M0 293.576L60.4292 305.371C120.858 318.477 244.464 342.068 365.322 305.371C488.927 268.674 609.785 171.689 730.644 116.644C854.249 61.5985 975.107 48.4924 1095.97 66.8409C1219.57 85.1894 1340.43 134.992 1464.03 153.341C1584.89 171.689 1705.75 158.583 1829.36 183.485C1950.21 208.386 2071.07 268.674 2194.68 293.576C2315.54 318.477 2439.14 305.371 2499.57 300.129L2560 293.576V0H2499.57C2439.14 0 2315.54 0 2194.68 0C2071.07 0 1950.21 0 1829.36 0C1705.75 0 1584.89 0 1464.03 0C1340.43 0 1219.57 0 1095.97 0C975.107 0 854.249 0 730.644 0C609.785 0 488.927 0 365.322 0C244.464 0 120.858 0 60.4292 0H0V293.576Z" fill="#A3173C"/>
<path class="top" fill-rule="evenodd" clip-rule="evenodd" d="M0 236.667L60.4292 246.176C120.858 256.742 244.464 275.76 365.322 246.176C488.927 216.593 609.785 138.408 730.644 94.033C854.249 49.6579 975.107 39.0924 1095.97 53.8841C1219.57 68.6758 1340.43 108.825 1464.03 123.616C1584.89 138.408 1705.75 127.843 1829.36 147.917C1950.21 167.992 2071.07 216.593 2194.68 236.667C2315.54 256.742 2439.14 246.176 2499.57 241.95L2560 236.667V0H2499.57C2439.14 0 2315.54 0 2194.68 0C2071.07 0 1950.21 0 1829.36 0C1705.75 0 1584.89 0 1464.03 0C1340.43 0 1219.57 0 1095.97 0C975.107 0 854.249 0 730.644 0C609.785 0 488.927 0 365.322 0C244.464 0 120.858 0 60.4292 0H0V236.667Z" fill="#FCFCFC"/>
</svg>
