<svg width="69" height="73" viewBox="0 0 69 73" fill="none" xmlns="http://www.w3.org/2000/svg">
<path d="M68.6892 71.634H59.028V28.7637H10.722V71.634H1.06079V19.237L34.875 0.183594L68.6892 19.237V71.634ZM15.5526 33.5271H54.1974V43.0538H15.5526V33.5271Z" fill="white"/>
<path d="M35 48.5C31.96 48.5 29.21 49.73 27.22 51.72L28.63 53.13C29.4654 52.2925 30.4584 51.6289 31.5518 51.1775C32.6451 50.726 33.8171 50.4958 35 50.5C37.5 50.5 39.74 51.5 41.36 53.14L42.77 51.73C40.79 49.73 38.04 48.5 35 48.5ZM30.05 54.55L31.46 55.96C32.4009 55.025 33.6735 54.5001 35 54.5001C36.3265 54.5001 37.5991 55.025 38.54 55.96L39.95 54.55C39.3007 53.8989 38.5292 53.3827 37.6797 53.0308C36.8301 52.679 35.9195 52.4986 35 52.5C33.07 52.5 31.32 53.28 30.05 54.55ZM35 63.5C34.4696 63.5 33.9609 63.2893 33.5858 62.9142C33.2107 62.5391 33 62.0304 33 61.5C33 60.9696 33.2107 60.4609 33.5858 60.0858C33.9609 59.7107 34.4696 59.5 35 59.5C35.5304 59.5 36.0391 59.7107 36.4142 60.0858C36.7893 60.4609 37 60.9696 37 61.5C37 62.0304 36.7893 62.5391 36.4142 62.9142C36.0391 63.2893 35.5304 63.5 35 63.5ZM38 57.5H32C31.7348 57.5 31.4804 57.6054 31.2929 57.7929C31.1054 57.9804 31 58.2348 31 58.5V70.5C31 70.7652 31.1054 71.0196 31.2929 71.2071C31.4804 71.3946 31.7348 71.5 32 71.5H38C38.2652 71.5 38.5196 71.3946 38.7071 71.2071C38.8946 71.0196 39 70.7652 39 70.5V58.5C39 58.2348 38.8946 57.9804 38.7071 57.7929C38.5196 57.6054 38.2652 57.5 38 57.5Z" fill="white"/>
</svg>
